<?xml version="1.0" encoding="UTF-8" standalone="no"?>
<!DOCTYPE svg PUBLIC "-//W3C//DTD SVG 1.1//EN"
 "http://www.w3.org/Graphics/SVG/1.1/DTD/svg11.dtd">
<!-- Generated by graphviz version 2.43.0 (0)
 -->
<!-- Title: G Pages: 1 -->
<svg width="460pt" height="237pt"
 viewBox="0.00 0.00 460.00 237.00" xmlns="http://www.w3.org/2000/svg" xmlns:xlink="http://www.w3.org/1999/xlink">
<g id="graph0" class="graph" transform="scale(1 1) rotate(0) translate(4 233)">
<title>G</title>
<polygon fill="white" stroke="transparent" points="-4,4 -4,-233 456,-233 456,4 -4,4"/>
<!-- \0000005d:\l00000065: x := 2\l00000066: when x &lt; 1 goto %0000005f\l00000067: goto %00000061 -->
<g id="node1" class="node">
<title>\0000005d:\l00000065: x := 2\l00000066: when x &lt; 1 goto %0000005f\l00000067: goto %00000061</title>
<polygon fill="none" stroke="black" points="377,-229 76,-229 76,-161 377,-161 377,-229"/>
<text text-anchor="start" x="84" y="-213.8" font-family="Times,serif" font-size="14.00">0000005d:</text>
<text text-anchor="start" x="84" y="-198.8" font-family="Times,serif" font-size="14.00">00000065: x := 2</text>
<text text-anchor="start" x="84" y="-183.8" font-family="Times,serif" font-size="14.00">00000066: when x &lt; 1 goto %0000005f</text>
<text text-anchor="middle" x="226.5" y="-168.8" font-family="Times,serif" font-size="14.00">00000067: goto %00000061</text>
</g>
<!-- \0000005f:\l0000006a: y := 1\l0000006b: goto %00000063 -->
<g id="node2" class="node">
<title>\0000005f:\l0000006a: y := 1\l0000006b: goto %00000063</title>
<polygon fill="none" stroke="black" points="219,-125 0,-125 0,-72 219,-72 219,-125"/>
<text text-anchor="start" x="8" y="-109.8" font-family="Times,serif" font-size="14.00">0000005f:</text>
<text text-anchor="start" x="8" y="-94.8" font-family="Times,serif" font-size="14.00">0000006a: y := 1</text>
<text text-anchor="middle" x="109.5" y="-79.8" font-family="Times,serif" font-size="14.00">0000006b: goto %00000063</text>
</g>
<!-- \0000005d:\l00000065: x := 2\l00000066: when x &lt; 1 goto %0000005f\l00000067: goto %00000061&#45;&gt;\0000005f:\l0000006a: y := 1\l0000006b: goto %00000063 -->
<g id="edge1" class="edge">
<title>\0000005d:\l00000065: x := 2\l00000066: when x &lt; 1 goto %0000005f\l00000067: goto %00000061&#45;&gt;\0000005f:\l0000006a: y := 1\l0000006b: goto %00000063</title>
<path fill="none" stroke="black" stroke-dasharray="5,2" d="M185.58,-160.95C173.8,-151.43 160.97,-141.07 149.26,-131.62"/>
<polygon fill="black" stroke="black" points="151.34,-128.8 141.36,-125.24 146.94,-134.24 151.34,-128.8"/>
</g>
<!-- \00000061:\l0000006e: y := 2\l0000006f: goto %00000063 -->
<g id="node3" class="node">
<title>\00000061:\l0000006e: y := 2\l0000006f: goto %00000063</title>
<polygon fill="none" stroke="black" points="452,-125 237,-125 237,-72 452,-72 452,-125"/>
<text text-anchor="start" x="245" y="-109.8" font-family="Times,serif" font-size="14.00">00000061:</text>
<text text-anchor="start" x="245" y="-94.8" font-family="Times,serif" font-size="14.00">0000006e: y := 2</text>
<text text-anchor="middle" x="344.5" y="-79.8" font-family="Times,serif" font-size="14.00">0000006f: goto %00000063</text>
</g>
<!-- \0000005d:\l00000065: x := 2\l00000066: when x &lt; 1 goto %0000005f\l00000067: goto %00000061&#45;&gt;\00000061:\l0000006e: y := 2\l0000006f: goto %00000063 -->
<g id="edge2" class="edge">
<title>\0000005d:\l00000065: x := 2\l00000066: when x &lt; 1 goto %0000005f\l00000067: goto %00000061&#45;&gt;\00000061:\l0000006e: y := 2\l0000006f: goto %00000063</title>
<path fill="none" stroke="black" stroke-width="5" d="M267.77,-160.95C279.65,-151.43 292.59,-141.07 304.4,-131.62"/>
<polygon fill="black" stroke="black" stroke-width="5" points="307.29,-134.9 312.36,-125.24 301.82,-128.07 307.29,-134.9"/>
</g>
<!-- \00000063:\l -->
<g id="node4" class="node">
<title>\00000063:\l</title>
<polygon fill="none" stroke="black" points="273,-36 180,-36 180,0 273,0 273,-36"/>
<text text-anchor="start" x="188" y="-14.3" font-family="Times,serif" font-size="14.00">00000063:</text>
</g>
<!-- \0000005f:\l0000006a: y := 1\l0000006b: goto %00000063&#45;&gt;\00000063:\l -->
<g id="edge3" class="edge">
<title>\0000005f:\l0000006a: y := 1\l0000006b: goto %00000063&#45;&gt;\00000063:\l</title>
<path fill="none" stroke="black" stroke-dasharray="5,2" d="M147.81,-71.8C162.27,-62.09 178.61,-51.13 192.63,-41.72"/>
<polygon fill="black" stroke="black" points="194.67,-44.57 201.03,-36.09 190.77,-38.76 194.67,-44.57"/>
</g>
<!-- \00000061:\l0000006e: y := 2\l0000006f: goto %00000063&#45;&gt;\00000063:\l -->
<g id="edge4" class="edge">
<title>\00000061:\l0000006e: y := 2\l0000006f: goto %00000063&#45;&gt;\00000063:\l</title>
<path fill="none" stroke="black" stroke-width="5" d="M305.86,-71.8C291.28,-62.09 274.8,-51.13 260.66,-41.72"/>
<polygon fill="black" stroke="black" stroke-width="5" points="262.94,-37.99 252.19,-36.09 258.09,-45.27 262.94,-37.99"/>
</g>
</g>
</svg>
