<?xml version="1.0" encoding="UTF-8" standalone="no"?>
<!DOCTYPE svg PUBLIC "-//W3C//DTD SVG 1.1//EN"
 "http://www.w3.org/Graphics/SVG/1.1/DTD/svg11.dtd">
<!-- Generated by graphviz version 2.43.0 (0)
 -->
<!-- Title: G Pages: 1 -->
<svg width="464pt" height="222pt"
 viewBox="0.00 0.00 464.00 222.00" xmlns="http://www.w3.org/2000/svg" xmlns:xlink="http://www.w3.org/1999/xlink">
<g id="graph0" class="graph" transform="scale(1 1) rotate(0) translate(4 218)">
<title>G</title>
<polygon fill="white" stroke="transparent" points="-4,4 -4,-218 460,-218 460,4 -4,4"/>
<!-- \0000007a:\l00000084: when x &lt; 1 goto %0000007c\l00000085: goto %0000007e -->
<g id="node1" class="node">
<title>\0000007a:\l00000084: when x &lt; 1 goto %0000007c\l00000085: goto %0000007e</title>
<polygon fill="none" stroke="black" points="379,-214 76,-214 76,-161 379,-161 379,-214"/>
<text text-anchor="start" x="84" y="-198.8" font-family="Times,serif" font-size="14.00">0000007a:</text>
<text text-anchor="start" x="84" y="-183.8" font-family="Times,serif" font-size="14.00">00000084: when x &lt; 1 goto %0000007c</text>
<text text-anchor="middle" x="227.5" y="-168.8" font-family="Times,serif" font-size="14.00">00000085: goto %0000007e</text>
</g>
<!-- \0000007c:\l00000088: y := 1\l00000089: goto %00000080 -->
<g id="node2" class="node">
<title>\0000007c:\l00000088: y := 1\l00000089: goto %00000080</title>
<polygon fill="none" stroke="black" points="219,-125 0,-125 0,-72 219,-72 219,-125"/>
<text text-anchor="start" x="8" y="-109.8" font-family="Times,serif" font-size="14.00">0000007c:</text>
<text text-anchor="start" x="8" y="-94.8" font-family="Times,serif" font-size="14.00">00000088: y := 1</text>
<text text-anchor="middle" x="109.5" y="-79.8" font-family="Times,serif" font-size="14.00">00000089: goto %00000080</text>
</g>
<!-- \0000007a:\l00000084: when x &lt; 1 goto %0000007c\l00000085: goto %0000007e&#45;&gt;\0000007c:\l00000088: y := 1\l00000089: goto %00000080 -->
<g id="edge1" class="edge">
<title>\0000007a:\l00000084: when x &lt; 1 goto %0000007c\l00000085: goto %0000007e&#45;&gt;\0000007c:\l00000088: y := 1\l00000089: goto %00000080</title>
<path fill="none" stroke="black" stroke-width="5" d="M192.73,-160.87C180.12,-151.57 165.72,-140.95 152.49,-131.2"/>
<polygon fill="black" stroke="black" stroke-width="5" points="155.07,-127.66 144.42,-125.25 149.88,-134.71 155.07,-127.66"/>
</g>
<!-- \0000007e:\l0000008c: y := 2\l0000008d: goto %00000080 -->
<g id="node3" class="node">
<title>\0000007e:\l0000008c: y := 2\l0000008d: goto %00000080</title>
<polygon fill="none" stroke="black" points="456,-125 237,-125 237,-72 456,-72 456,-125"/>
<text text-anchor="start" x="245" y="-109.8" font-family="Times,serif" font-size="14.00">0000007e:</text>
<text text-anchor="start" x="245" y="-94.8" font-family="Times,serif" font-size="14.00">0000008c: y := 2</text>
<text text-anchor="middle" x="346.5" y="-79.8" font-family="Times,serif" font-size="14.00">0000008d: goto %00000080</text>
</g>
<!-- \0000007a:\l00000084: when x &lt; 1 goto %0000007c\l00000085: goto %0000007e&#45;&gt;\0000007e:\l0000008c: y := 2\l0000008d: goto %00000080 -->
<g id="edge2" class="edge">
<title>\0000007a:\l00000084: when x &lt; 1 goto %0000007c\l00000085: goto %0000007e&#45;&gt;\0000007e:\l0000008c: y := 2\l0000008d: goto %00000080</title>
<path fill="none" stroke="black" stroke-dasharray="5,2" d="M262.56,-160.87C275.28,-151.57 289.8,-140.95 303.15,-131.2"/>
<polygon fill="black" stroke="black" points="305.27,-133.98 311.28,-125.25 301.14,-128.33 305.27,-133.98"/>
</g>
<!-- \00000080:\l -->
<g id="node4" class="node">
<title>\00000080:\l</title>
<polygon fill="none" stroke="black" points="274,-36 181,-36 181,0 274,0 274,-36"/>
<text text-anchor="start" x="189" y="-14.3" font-family="Times,serif" font-size="14.00">00000080:</text>
</g>
<!-- \0000007c:\l00000088: y := 1\l00000089: goto %00000080&#45;&gt;\00000080:\l -->
<g id="edge3" class="edge">
<title>\0000007c:\l00000088: y := 1\l00000089: goto %00000080&#45;&gt;\00000080:\l</title>
<path fill="none" stroke="black" stroke-width="5" d="M148.14,-71.8C162.72,-62.09 179.2,-51.13 193.34,-41.72"/>
<polygon fill="black" stroke="black" stroke-width="5" points="195.91,-45.27 201.81,-36.09 191.06,-37.99 195.91,-45.27"/>
</g>
<!-- \0000007e:\l0000008c: y := 2\l0000008d: goto %00000080&#45;&gt;\00000080:\l -->
<g id="edge4" class="edge">
<title>\0000007e:\l0000008c: y := 2\l0000008d: goto %00000080&#45;&gt;\00000080:\l</title>
<path fill="none" stroke="black" stroke-dasharray="5,2" d="M307.53,-71.8C292.83,-62.09 276.21,-51.13 261.95,-41.72"/>
<polygon fill="black" stroke="black" points="263.68,-38.68 253.41,-36.09 259.83,-44.52 263.68,-38.68"/>
</g>
</g>
</svg>
